# xmcd
#
# Track frame offsets:
#	150
#	19271
#	34671
#	53145
#	71490
#	91127
#	104816
#	121774
#	144654
#	160298
#	179419
#	194819
#	213293
#	231638
#	251275
#	264964
#	281922
#	304802
#
# Disc length: 4272 seconds
#
# Revision: 1
# Processed by: cddbd v1.5.2PL0 Copyright (c) Steve Scherf et al.
# Submitted via: audiograbber 1.83.01
#
DISCID=0e10ae12
DTITLE=Pop Hits Monthly Adult Contemporary - PHAC0605
DYEAR=2006
DGENRE=Karaoke
TTITLE0=Gabe Dixon Band, The - All Will Be Well
TTITLE1=McCartney, Paul - This Never Happened Before
TTITLE2=Jewel - Again And Again
TTITLE3=Powter, Daniel - Free Loop
TTITLE4=Diaz, Dian - Colour Everywhere
TTITLE5=Carlile, Brandi - What Can I Say
TTITLE6=Buble, Michael - Save The Last Dance For Me
TTITLE7=Rice, Chris - When Did You Fall
TTITLE8=Tunstall, KT - Suddenly I See
TTITLE9=Gabe Dixon Band, The w/vocal - All Will Be Well
TTITLE10=McCartney, Paul w/vocal - This Never Happened Before
TTITLE11=Jewel w/vocal - Again And Again
TTITLE12=Powter, Daniel w/vocal - Free Loop
TTITLE13=Diaz, Dian w/vocal - Colour Everywhere
TTITLE14=Carlile, Brandi w/vocal - What Can I Say
TTITLE15=Buble, Michael w/vocal - Save The Last Dance For Me
TTITLE16=Rice, Chris w/vocal - When Did You Fall
TTITLE17=Tunstall, KT w/vocal - Suddenly I See
EXTD=
EXTT0=
EXTT1=
EXTT2=
EXTT3=
EXTT4=
EXTT5=
EXTT6=
EXTT7=
EXTT8=
EXTT9=
EXTT10=
EXTT11=
EXTT12=
EXTT13=
EXTT14=
EXTT15=
EXTT16=
EXTT17=
PLAYORDER=
